# xmcd
#
# Track frame offsets:
#	150
#	16042
#	25972
#	36182
#	53427
#	67657
#	77597
#	89922
#	100312
#	112997
#	125232
#	133612
#
# Disc length: 1909 seconds
# Revision: 3
# Processed by: cddbd v1.5.2PL0 Copyright (c) Steve Scherf et al.
# Submitted via: dBpowerAMP V12.0
#
DISCID=9407730c
DTITLE=Ike and Tina Turner - Too Hot To Hold
DYEAR=1996
DGENRE=Blues
TTITLE0=Crazy 'Bout You Baby
TTITLE1=Too Hot To Hold
TTITLE2=Please Love Me
TTITLE3=I Smell Trouble
TTITLE4=It Sho Ain't Me
TTITLE5=Beauty Is Just Skin Deep
TTITLE6=We Need Understanding
TTITLE7=Shake A Tailfeather
TTITLE8=Rock Me Baby
TTITLE9=So Fine
TTITLE10=My Babe
TTITLE11=Ain't Nobody's Business
EXTD=
EXTT0=
EXTT1=
EXTT2=
EXTT3=
EXTT4=
EXTT5=
EXTT6=
EXTT7=
EXTT8=
EXTT9=
EXTT10=
EXTT11=
PLAYORDER=
